<?xml version="1.0" encoding="iso-8859-1"?>
<!-- Generator: Adobe Illustrator 16.0.0, SVG Export Plug-In . SVG Version: 6.00 Build 0)  -->
<!DOCTYPE svg PUBLIC "-//W3C//DTD SVG 1.1//EN" "http://www.w3.org/Graphics/SVG/1.1/DTD/svg11.dtd">
<svg xmlns="http://www.w3.org/2000/svg" xmlns:xlink="http://www.w3.org/1999/xlink" version="1.1" id="Capa_1" x="0px" y="0px" width="512px" height="512px" viewBox="0 0 250.563 250.563" style="enable-background:new 0 0 250.563 250.563;" xml:space="preserve">
<g>
	<path d="M59.742,7.104C41.583-2.839,21.389-2.587,9.406,9.398C-2.516,21.321-2.837,41.347,6.933,59.424   C24.521,55.746,54.091,44.058,59.742,7.104z" fill="#FFFFFF"/>
	<path d="M185.746,227.126l64.816,23.437l-23.179-64.096C218.761,208.727,201.437,220.701,185.746,227.126z" fill="#FFFFFF"/>
	<path d="M219.836,165.613l-1.304-3.603L75.345,18.823c-1.408-1.408-2.858-2.724-4.333-3.979   c-2.855,13.412-8.542,23.803-15.588,31.877L206.205,197.51C212.846,189.728,217.986,179.4,219.836,165.613z" fill="#FFFFFF"/>
	<path d="M14.859,71.022c1.249,1.475,2.564,2.919,3.966,4.324l143.19,143.187l3.068,1.111c8.815-1.663,21.287-5.381,32.18-13.679   L46.534,55.224C36.209,63.525,24.568,68.296,14.859,71.022z" fill="#FFFFFF"/>
</g>
<g>
</g>
<g>
</g>
<g>
</g>
<g>
</g>
<g>
</g>
<g>
</g>
<g>
</g>
<g>
</g>
<g>
</g>
<g>
</g>
<g>
</g>
<g>
</g>
<g>
</g>
<g>
</g>
<g>
</g>
</svg>
